<!DOCTYPE svg PUBLIC "-//W3C//DTD SVG 20010904//EN" "http://www.w3.org/TR/2001/REC-SVG-20010904/DTD/svg10.dtd">
<svg version="1.0" xmlns="http://www.w3.org/2000/svg" width="70px" height="70px" viewBox="0 0 700 700" preserveAspectRatio="xMidYMid meet">
<g id="layer101" fill="#ffffff" stroke="none">
 <path d="M100 609 c0 -6 50 -59 111 -117 l110 -105 -66 -67 c-65 -65 -69 -68 -107 -62 -37 5 -43 2 -94 -49 -30 -29 -54 -57 -54 -61 0 -19 27 -4 76 42 31 30 58 48 67 44 10 -4 -1 -20 -39 -56 -47 -44 -70 -88 -46 -88 4 0 32 25 62 55 30 30 58 55 62 55 22 0 3 -35 -42 -77 -45 -43 -63 -73 -42 -73 4 0 32 24 61 54 48 49 53 58 49 90 -4 33 1 41 64 103 l68 67 79 -78 c75 -74 79 -80 74 -115 -5 -33 -1 -40 41 -79 54 -49 82 -53 119 -14 39 40 34 67 -18 120 -41 41 -48 44 -83 38 -37 -5 -40 -3 -116 73 l-77 78 110 105 c61 58 111 111 111 117 0 27 -32 4 -132 -96 l-108 -108 -108 108 c-100 100 -132 123 -132 96z m519 -433 c40 -41 38 -81 -5 -92 -20 -5 -33 0 -60 27 -35 34 -43 66 -22 87 21 21 53 13 87 -22z"/>
 <path d="M300 556 c0 -41 2 -46 23 -46 37 0 59 22 55 55 -3 27 -7 30 -40 33 l-38 3 0 -45z m50 19 c10 -12 10 -18 0 -30 -19 -23 -30 -18 -30 15 0 33 11 38 30 15z"/>
 <path d="M487 423 c-11 -10 -8 -83 3 -83 6 0 10 16 10 35 0 24 5 35 15 35 10 0 15 -11 15 -35 0 -24 5 -35 15 -35 16 0 19 28 9 68 -5 16 -14 22 -33 22 -15 0 -31 -3 -34 -7z"/>
 <path d="M120 375 c0 -33 4 -45 15 -45 11 0 15 12 15 45 0 33 -4 45 -15 45 -11 0 -15 -12 -15 -45z"/>
 <path d="M310 205 c0 -43 1 -45 30 -45 17 0 30 5 30 10 0 6 -9 10 -20 10 -11 0 -20 5 -20 10 0 6 7 10 15 10 8 0 15 5 15 10 0 6 -7 10 -15 10 -8 0 -15 7 -15 15 0 8 -4 15 -10 15 -5 0 -10 -20 -10 -45z"/>
 </g>

</svg>